<svg fill="none" height="133" viewBox="0 0 139 133" width="139" xmlns="http://www.w3.org/2000/svg"><g fill="#07f2b4"><path clip-rule="evenodd" d="m13.0812 5.80732c.1121 2.06022.2876 4.09723.5241 6.10768-8.73628 3.2878-14.508793 12.1485-13.488737 21.8676 1.211847 11.5466 11.553637 19.9237 23.100137 18.7119 1.7421-.1829 3.4148-.5745 4.9946-1.148 10.2988 14.4793 24.9364 23.5244 41.1755 23.5244 16.2563 0 30.9082-9.0644 41.2082-23.5707 1.617.5989 3.333 1.0067 5.121 1.1944 11.547 1.2119 21.889-7.1653 23.1-18.7118 1.026-9.7756-4.819-18.6829-13.641-21.9245.233-1.99201.406-4.01011.517-6.05098.097-1.78498.147-3.58737.147-5.404976h-112.9042c0 1.817606.0494 3.619996.1464 5.404976zm91.9158 43.98708c8.559-11.2904 14.287-26.6837 15.282-43.98708h-101.7844c.9951 17.30338 6.723 32.69668 15.2819 43.98708 9.4377 12.4497 22.0794 19.6715 35.6103 19.6715s26.1726-7.2218 35.6102-19.6715zm-79.8565-3.14c-5.0796-8.4447-8.7994-18.3773-10.7227-29.2218-5.87076 2.7384-9.6398 8.9827-8.92579 15.7859.90027 8.5777 8.58279 14.8008 17.16049 13.9005.8554-.0898 1.6861-.2466 2.488-.4646zm91.1395.4647c-.904-.0948-1.78-.2647-2.624-.5024 5.078-8.4541 8.795-18.3971 10.712-29.2517 5.955 2.702 9.793 8.9937 9.073 15.8536-.9 8.5778-8.583 14.8008-17.161 13.9005z" fill-rule="evenodd"/><path d="m85.0012 120.513v-5.405h-31.2288v5.405z"/><path d="m60.979 109.102v-5.405h16.8155v5.405z"/><path d="m100.616 132.224v-5.405h-62.458v5.405z"/><path clip-rule="evenodd" d="m69.3868 78.7745c-5.4725 0-9.9091 4.4362-9.9091 9.9091s4.4362 9.9091 9.9091 9.9091c5.4724 0 9.9091-4.4362 9.9091-9.9091s-4.4367-9.9091-9.9091-9.9091zm-4.5042 9.9091c0-2.4877 2.0167-4.5041 4.5042-4.5041s4.5041 2.0164 4.5041 4.5041-2.0166 4.5042-4.5041 4.5042c-2.4878 0-4.5042-2.0164-4.5042-4.5042z" fill-rule="evenodd"/></g></svg>