<svg fill="none" height="144" viewBox="0 0 201 144" width="201" xmlns="http://www.w3.org/2000/svg"><path clip-rule="evenodd" d="m68.8327 0c-4.4293 0-8.4796 2.49894-10.4665 6.45758l-25.3551 50.51742c-1.1117 2.2148-4.1757 2.4622-5.6282.4544l-6.137-8.4829h-21.2459v5.405h18.485l4.5187 6.246c3.8294 5.2932 11.9074 4.6411 14.838-1.1979l25.3552-50.51747c1.0699-2.13157 3.2508-3.47715 5.6358-3.47715h.4991c4.0251 0 7.0198 3.71981 6.1604 7.65202l-4.7831 21.8877c-1.4634 6.6966 3.1121 13.2128 9.9077 14.1102l10.3613 1.3682-10.5709 30.0411c-2.4683 7.0147 2.1415 14.5236 9.5137 15.4972l12.3771 1.6344-5.3836 15.2992c-.8881 2.524-3.2725 4.213-5.9483 4.213h-48.7172c-1.0535 0-2.0439-.503-2.6659-1.353l-2.2296-3.048c-3.1753-4.341-9.4873-4.794-13.2502-.952l-5.2414 5.353h-18.8618v5.405h21.1339l6.8311-6.976c1.4273-1.458 3.8215-1.286 5.0259.361l2.2296 3.048c1.6399 2.242 4.2509 3.567 7.0284 3.567h48.7172c4.9693 0 9.3979-3.136 11.0469-7.824l5.76-16.3702 11.487 1.5169c3.659.4833 6.123 3.9923 5.335 7.5973l-4.783 21.888c-1.596 7.303 3.966 14.211 11.441 14.211h.499c4.429 0 8.48-2.499 10.466-6.457l25.356-50.5179c1.111-2.2148 4.175-2.4621 5.628-.4544l6.137 8.4829h21.246v-5.405h-18.485l-4.519-6.246c-3.829-5.2932-11.907-4.641-14.838 1.198l-25.355 50.5174c-1.07 2.132-3.251 3.477-5.636 3.477h-.499c-4.025 0-7.02-3.72-6.161-7.652l4.784-21.888c1.463-6.696-3.113-13.2124-9.908-14.1098l-10.361-1.3682 10.57-30.0411c2.469-7.0146-2.141-14.5236-9.513-15.4971l-12.3773-1.6344 5.3833-15.2993c.888-2.5241 3.273-4.2128 5.949-4.2128h48.717c1.053 0 2.044.5026 2.666 1.353l2.229 3.0481c3.176 4.3408 9.488 4.7941 13.25.9514l5.242-5.3525h18.862v-5.4049h-21.134l-6.831 6.9759c-1.428 1.4575-3.822 1.2856-5.026-.361l-2.23-3.0481c-1.64-2.2418-4.251-3.5668-7.028-3.5668h-48.717c-4.97 0-9.398 3.1361-11.0473 7.8236l-5.7604 16.3703-11.4869-1.5169c-3.6592-.4832-6.1229-3.9919-5.3349-7.5977l4.7831-21.8878c1.5959-7.30268-3.9657-14.2109-11.4408-14.2109zm27.6208 51.1462-10.9477 31.1121c-1.3291 3.7771 1.1531 7.8204 5.1227 8.3446l13.5025 1.7831 10.948-31.1122c1.329-3.7771-1.153-7.8204-5.123-8.3446z" fill="#636265" fill-rule="evenodd"/></svg>