<svg fill="none" height="100" viewBox="0 0 100 100" width="100" xmlns="http://www.w3.org/2000/svg"><path d="m.00000002 49.9902c.0006761-27.6886 22.28459998-49.9682347 49.99969998-49.99018436 27.6954-.02161194 50.0533 22.35248436 50 50.03648436-.0538 27.7336-22.4178 50.0715-50.0224 49.9632-27.7907-.1087-49.97797609-22.31-49.97729998-50.0095zm34.89899998-26.4321v.4961c0 8.6133-.0038 17.2267.0067 25.8398.001.7881.0345 1.5847.1491 2.3631 1.2565 8.5327 9.0337 14.4074 17.5796 13.2978 8.6784-1.1265 14.7711-9.2526 13.4328-17.915-1.2342-7.9886-8.1622-13.6733-16.244-13.2859-2.3525.1127-4.3646 1.0525-5.9727 2.7974-.2271.2465-.4273.5186-.7275.886 0-4.9143 0-9.6939 0-14.4796-2.7568.0003-5.4561.0003-8.224.0003zm-2.0236 41.7716c.0098-.2064.0223-.3526.0223-.4985.001-4.8752.0128-9.7507-.0098-14.6259-.0044-.9506-.0744-1.9126-.2336-2.849-1.5016-8.8241-10.0009-14.5736-18.727-12.692-8.08748 1.7438-13.410083 9.4107-12.22792 17.6138 1.14092 7.9187 8.13484 13.7364 16.13072 13.3808 2.4042-.1067 4.4761-1.0188 6.1177-2.8173.217-.2377.4097-.4971.7086-.8625v3.3502c2.7706.0004 5.4696.0004 8.219.0004zm65.6297-18.7559c-1.0881-5.9811-7.0865-12.6774-16.1824-12.2273-8.43.4174-14.9868 7.6361-14.7339 16.2499.2501 8.5259 7.3502 15.2337 16.0712 15.0632 8.6291-.1689 13.9479-6.9169 14.8286-12.2101-.1853 0-.3651 0-.5453 0-2.4894 0-4.9791.0098-7.4685-.0098-.4088-.003-.639.1064-.8597.4697-1.7068 2.8076-5.0048 4.1404-8.2011 3.3479-3.1189-.7737-5.4389-3.5836-5.6164-6.8024-.1903-3.4542 1.9638-6.59 5.2188-7.5973 3.3295-1.0303 6.8841.3279 8.6717 3.3411.1846.3113.3844.3809.7079.3799 2.5387-.0091 5.0778-.0051 7.6169-.0051.1616.0003.3229.0003.4922.0003zm-47.9331 10.9029c4.1424-.0013 7.4797-3.3356 7.4797-7.473 0-4.1387-3.3342-7.471-7.4774-7.473-4.1532-.002-7.4597 3.308-7.4621 7.4707-.0023 4.1569 3.3109 7.477 7.4598 7.4753zm-33.4251-14.9433c-4.1151.0206-7.40294 3.3536-7.39043 7.4916.01251 4.1758 3.35043 7.4771 7.53443 7.4514 4.108-.0253 7.425-3.3846 7.4013-7.4963-.0243-4.1769-3.3585-7.4676-7.5453-7.4467z" fill="#636265"/></svg>