<svg fill="none" height="69" viewBox="0 0 126 69" width="126" xmlns="http://www.w3.org/2000/svg"><path d="m64.5399 16.3714c.2124-2.3775.5753-4.353 1.2769-6.2808.6588-1.80998 1.6882-3.37789 2.8675-4.84783.5931-.73928 1.37-1.33061 2.0775-1.97366.341-.30999.6805-.64515 1.0773-.86509 1.3536-.75058 2.7261-1.467728 4.1071-2.166.2619-.132455.5954-.1669379.8963-.1681028 3.2903-.0121155 6.5805-.0184063 9.8707.0046598.364.0025629.7419.160647 1.0871.308945.7549.324323 1.5044.666118 2.2356 1.041348 1.4831.76095 2.7949 1.77259 3.939 2.981 1.1642 1.22949 2.1443 2.58713 2.9597 4.10261 1.0552 1.96112 1.5079 4.01252 1.6646 6.20822.1426 1.9968-.0179 3.9611-.4017 5.8946-.198.9979-.7399 1.9328-1.1729 2.8744-.2802.6091-.5815 1.2278-.9844 1.756-.8271 1.0839-1.6585 2.1815-2.6209 3.1378-.8523.8471-1.8655 1.5371-2.8459 2.2425-.4306.3097-.9448.5135-1.4408.7159-.9397.3837-1.8699.8301-2.8477 1.0697-1.2283.3011-2.4962.456-3.7551.6039-.6227.0732-1.2686.0369-1.8951-.0324-2.0863-.2309-4.1552-.5837-6.071-1.4945-1.5621-.7425-2.9637-1.7375-4.3002-2.8545-1.2638-1.0562-2.2752-2.3248-3.1051-3.6956-.9091-1.5015-1.7673-3.0703-1.9971-4.8914-.1689-1.3371-.4469-2.6599-.6214-3.6717zm14.1986-.5611c-.0028 0-.0055 0-.0083 0 0 2.0764-.005 4.1529.0035 6.2293.0021.5229.022 1.0483.0781 1.5676.1168 1.0785 1.3569 2.2318 2.4299 2.4018 1.4978.2372 3.6575-1.2466 3.5303-3.007-.0431-.5959.0543-1.2007.0552-1.8016.0058-3.8618-.0407-7.7243.0231-11.5851.0269-1.62511-.4558-2.85075-1.8826-3.67752-.7888-.45713-1.5947-.49872-2.3647-.11393-1.299.64911-1.9329 1.70176-1.8833 3.23379.0729 2.24856.0188 4.50146.0188 6.75266zm14.466 53.1414c.9432 0 1.8868-.0185 2.8291.0087.3983.0115.6062-.1312.7036-.5107.2399-.9353.5222-1.8606.7353-2.8019.3802-1.6797.7202-3.3684 1.0813-5.0524.0528-.2463.1331-.4864.1935-.7312.3898-1.5765.8015-3.148 1.1595-4.732.3962-1.7548.7432-3.521 1.1122-5.2819.016-.0757.045-.1483.065-.2234.404-1.5716.828-3.1381 1.205-4.7161.422-1.769.789-3.5515 1.205-5.322.209-.8851.094-1.1004-.795-1.1137-1.444-.0215-2.8875-.0042-4.331-.0159-.4041-.0033-.6674.1624-.7765.5504-.2139.7615-.4483 1.5191-.6162 2.2912-.1683.775-.2257 1.5748-.4026 2.3473-.3797 1.6588-.8513 3.297-1.1994 4.9621-.396 1.8939-.6979 3.8078-1.0429 5.7126-.0206.1139-.052.2276-.0929.3358-.1433.3789-.4221.4554-.6373.1325-.3024-.4537-.6507-.9498-.73-1.4667-.203-1.3202-.431-2.6204-.7425-3.9267-.3657-1.5342-.609-3.1055-.9811-4.6507-.421-1.7478-.6872-3.534-1.0023-5.3069-.1088-.6121-.4546-.9508-1.048-.9582-1.6164-.0203-3.2332-.0164-4.8496.0016-.5623.0063-.909.283-1.0192.8946-.219 1.2154-.4986 2.4195-.7448 3.63-.2661 1.3074-.5344 2.6146-.7807 3.9259-.3465 1.8447-.6777 3.6923-1.0062 5.5402-.1017.5727-.1645 1.1525-.2617 1.7262-.0562.3317-.2066.5736-.6047.571-.3774-.0024-.5639-.2036-.6469-.5397-.0698-.2822-.1339-.5663-.1876-.8519-.1754-.9325-.3449-1.8662-.517-2.7993-.2247-1.2195-.4304-2.4429-.6791-3.6574-.4345-2.1225-.8983-4.239-1.342-6.3596-.0674-.3218-.0722-.6572-.1413-.9786-.1836-.8548-.5357-1.1395-1.4073-1.1392-1.6938.0003-3.3874.0152-5.0812.0159-1.4238.0006-1.4782.0465-1.1828 1.4907.256 1.2509.5544 2.493.8344 3.739.0595.2648.1118.5315.181.7937.3943 1.4937.8314 2.9773 1.1795 4.4818.4096 1.7703.7427 3.5586 1.1098 5.3389.0156.0758.0409.1497.0606.2247.4147 1.584.8441 3.1643 1.2388 4.7535.2698 1.0865.4949 2.1845.7329 3.2788.3905 1.7948.7816 3.5894 1.1594 5.3868.1524.7255.4456.9974 1.1762.9997 1.6937.0055 3.3875.0046 5.0812.0085.8715.002 1.1997-.3073 1.3773-1.1966.4964-2.4858 1.0275-4.9645 1.519-7.4512.3867-1.9558.7366-3.919 1.0994-5.8795.06-.3241.0783-.658.1634-.9746.046-.1718.1919-.3164.2929-.4732.1675.1137.3526.2091.4965.3479.0898.0865.14.2333.1699.3621.2146.9232.429 1.8466.6239 2.7743.1234.5878.1898 1.1881.3222 1.7736.3996 1.7681.8486 3.5252 1.2215 5.2987.3226 1.5341.5677 3.0849.8468 4.6283.0975.5388.3234.8436.9614.7982.9001-.0641 1.8081-.0162 2.7127-.0162zm-48.4325-15.071c0-4.4848-.0099-8.9697.0052-13.4544.0054-1.6126-.0521-1.6967-1.6776-1.7057-1.4819-.0082-2.9644-.002-4.4457-.0416-.8455-.0226-1.2476.2881-1.2611 1.1491-.0073.4634.0864.9279.0872 1.392.0063 3.6499.0055 7.3-.0051 10.9499-.0017.5919-.2303.7594-.757.5279-.2571-.113-.4683-.3687-.6548-.5974-.1426-.1748-.1992-.4178-.3193-.615-.6899-1.1323-1.401-2.2518-2.0788-3.3914-.9343-1.5708-1.8458-3.1552-2.7658-4.7346-.2996-.5142-.5854-1.0368-.8951-1.5446-.4199-.6882-.9085-1.3393-1.2716-2.0559-.3542-.6987-.9353-1.0049-1.6161-1.0195-2.2297-.0478-4.4611-.0316-6.6917-.023-.8387.0033-1.1605.3417-1.1657 1.1716-.015 2.4266-.032 4.8531-.0341 7.2797-.0055 6.4846-.0033 12.9692-.0059 19.4536-.0002.5619-.022 1.1239-.0181 1.6856.0032.4694.2127.6628.7173.6547 1.9436-.0311 3.8879-.0179 5.8319-.0179.981 0 1.135-.1554 1.1341-1.1467-.0045-4.7742-.0085-9.5485-.0081-14.3227 0-.2503-.0156-.526.0803-.7431.0825-.1869.2942-.3657.4879-.4316.0944-.032.3191.1748.413.3205.3014.4677.5702.9568.85 1.4386.9175 1.5802 1.8334 3.1612 2.7518 4.7407.2907.5.5854.9976.8827 1.4937.7409 1.2359 1.488 2.4679 2.2253 3.7059.3735.6272.729 1.2654 1.097 1.896.4258.7295.8781 1.4443 1.2772 2.1881.2558.4765.5689.8555 1.129.8597 2.0401.0153 4.0806-.001 6.1209.0095.338.0017.5038-.1413.5456-.4563.0279-.2109.0496-.4244.0497-.6368.0028-4.6595.0021-9.319.0021-13.9785-.0054-.0001-.011-.0001-.0166-.0001zm65.237-28.4765c.46.6853.907 1.3812 1.334 2.0887.814 1.3515 1.682 2.6775 2.388 4.0854.412.8206.988.9712 1.763.9685 2.694-.0092 5.388-.0009 8.082-.0005.135 0 .272.004.403-.018.507-.0845.655-.2959.409-.7438-.498-.908-1.062-1.7795-1.584-2.6748-.93-1.595-1.838-3.2031-2.776-4.793-.673-1.1402-1.392-2.253-2.071-3.3896-.996-1.6672-1.993-3.3341-2.943-5.0279-.167-.2988-.255-.8016-.121-1.0851.445-.9366.998-1.8219 1.528-2.7156.687-1.1572 1.411-2.29249 2.084-3.45791s1.297-2.35891 1.952-3.53482c.29-.52015.595-1.03238.908-1.53855.657-1.06232 1.327-2.11695 1.983-3.179737.042-.067684.015-.17882.024-.3469226-.242 0-.448 0-.654 0-2.963-.000699-5.927.0270269-8.89-.0226001-.73-.012232-1.093.3322447-1.396.8794227-.654 1.178467-1.28 2.372427-1.954 3.538887-.904 1.5664-1.296 1.60484-2.203.2768-.022-.03192-.042-.06489-.061-.09867-.653-1.15494-1.308-2.30824-1.956-3.4662-.424-.757106-.917-1.182779-1.921-1.14654903-2.806.10135103-5.6178.03378363-8.4273.03727843-.2383.0003495-.4767.0329682-.8693.0619756.4779.820709.8804 1.531095 1.3015 2.229955.4147.68825.8629 1.35612 1.2703 2.04868.6632 1.12756 1.3067 2.26688 1.9551 3.40318.3039.53261.5837 1.08026.9027 1.60274.671 1.09694 1.369 2.17764 2.042 3.27324.413.6714.844 1.3371 1.18 2.0473.156.3305.256.8315.118 1.1331-.43.943-.972 1.8358-1.495 2.7332-.678 1.1614-1.379 2.3089-2.072 3.4615-.2669.4444-.5551.8771-.803 1.3321-.6522 1.1978-1.257 2.4228-1.9369 3.6039-.9195 1.5974-1.8945 3.1621-2.8392 4.7449-.3027.5072-.1682.81.4028.8119 3.0595.0107 6.1193.0035 9.1783-.0205.195-.0015.467-.1481.568-.312.536-.8658 1.034-1.7559 1.536-2.643.644-1.1396 1.258-2.2977 1.928-3.4213.291-.4871.691-.9079 1.086-1.4171.261.2748.489.4588.646.6915zm-66.416-9.2753c0 5.1243-.0007 10.2486.0007 15.3729.0002.8418.1202.9689.9469 1.0327.115.0088.2308.0078.3462.0078 2.4247.0005 4.8494.003 7.2743-.0004.8042-.0012.9309-.1309.9323-.9587.0041-2.5233.001-5.0466.0042-7.5699.0005-.3293-.0053-.662.0369-.9873.1024-.7901.3929-1.069 1.1858-1.1662.2281-.028.4609-.023.6916-.0231 2.213-.0013 4.426.0003 6.6391-.0006 1.0612-.0004 1.1307-.0644 1.1317-1.1056.0021-2.2515.0002-4.503-.0047-6.7544-.0022-.9666-.1562-1.1161-1.1052-1.1151-2.3477.0025-4.6955.0086-7.0432.0052-1.1137-.0016-1.5247-.4255-1.5352-1.5566-.0051-.5434-.0086-1.087-.0046-1.63046.0095-1.29426.3353-1.62161 1.6089-1.62138 2.9057.00035 5.8116.00245 8.7174.00245.2115 0 .4254.00792.6338-.02027.7056-.09541.8829-.26002.8345-.97635-.1197-1.77445-.2845-3.54588-.4286-5.3187-.0314-.38677-.0609-.773999-.0769-1.161695-.017-.408898-.1986-.5550996-.6182-.5542841-6.5428.0137464-13.0857.0178237-19.6286.0039608-.5234-.0010485-.6462.1801013-.6339.6746243.0515 2.074434.0836 4.149674.0933 6.224804.0144 3.06557.0037 6.1311.0037 9.1967zm70.882 52.8225c1.059 0 2.126.0845 3.173-.0265.846-.0897 1.759-.2536 2.479-.6708 1.333-.7718 2.628-1.6182 3.648-2.8592 1.05-1.2772 1.792-2.7033 2.031-4.2873.394-2.6029.301-5.1828-1.364-7.4439-.673-.9151-1.446-1.7081-2.458-2.2196-.785-.3966-1.58-.7955-2.41-1.0726-1.527-.51-3.088-.9168-4.626-1.3954-.819-.255-1.667-.4826-2.414-.8874-.546-.2959-.957-.9057-.897-1.5869.08-.9171.567-1.5721 1.453-1.9662 1.816-.8082 3.851-.0779 4.901 1.4.201.2823.414.5559.616.8371.251.3488.568.4378.961.2701.406-.1733.802-.3765 1.221-.5086 1.187-.375 2.386-.7124 3.575-1.0807.678-.2096.902-.8803.514-1.4803-.136-.2106-.32-.3994-.412-.6271-.418-1.0327-1.043-1.9017-1.798-2.723-1.503-1.636-3.394-2.5304-5.493-2.9211-1.252-.233-2.567-.1585-3.854-.1504-1.392.0086-2.667.5808-3.924 1.0848-1.146.4599-2.136 1.2149-3.047 2.1065-.97.9494-1.613 2.058-2.044 3.2987-.304.8747-.48 1.8001-.645 2.7154-.088.4865-.093 1.0085-.024 1.4985.099.7086.294 1.4042.458 2.1031.457 1.9493 1.719 3.2694 3.35 4.2769.65.402 1.328.7765 2.031 1.0708 1.111.4645 2.242.8869 3.386 1.2598 1.185.3865 2.429.6088 3.584 1.0642.761.2999 1.35.8989 1.464 1.8547.12 1.0031-.407 1.7062-1.151 2.0181-1.669.7002-3.379.598-4.991-.3149-.899-.5089-1.39-1.3776-1.866-2.2412-.251-.4549-.552-.6526-1.071-.5461-1.825.3746-3.656.7226-5.481 1.1027-.581.1211-.879.5969-.684 1.1902.265.8043.524 1.6437.974 2.3444.651 1.0112 1.417 1.9613 2.232 2.8456.896.9717 2.042 1.6622 3.265 2.1045 1.069.3864 2.191.6999 3.376.5885.649-.061 1.308-.0109 1.962-.0109 0-.0049 0-.0097 0-.0145zm-48.5851.0018c.7787.0001.8914-.0595.9043-.8296.0304-1.8046.0165-3.6102.0145-5.4153-.0005-.4179-.2258-.6488-.6392-.6696-.3072-.0155-.6156-.0108-.9234-.0109-3.2138-.0021-6.4276.0028-9.6414-.0092-.7554-.0028-.9465-.1629-.9757-.9102-.0455-1.1627-.0493-2.3287-.0214-3.4922.0174-.7175.346-.984 1.0685-.9854 2.5959-.0051 5.1917-.0078 7.7876-.0093.6383-.0004 1.0007-.2747 1.0131-.9152.0293-1.5133.0347-3.0284-.0074-4.5412-.0223-.8009-.3467-1.0462-1.1279-1.0448-2.5595.0045-5.1191.0172-7.6784.0059-.7842-.0035-1.059-.3196-1.0665-1.1163-.0057-.6017-.0012-1.2035-.001-1.8052.0005-1.6088.033-1.646 1.6036-1.6467 2.9829-.0011 5.9658.0046 8.9487.0011.3061-.0004.6126-.0387.918-.0692.3695-.0369.5331-.2512.5318-.6242-.0071-1.9019-.0106-3.8038-.0091-5.7057.0004-.4059-.2007-.6072-.5832-.6495-.21-.0231-.4208-.0521-.6313-.0535-3.7523-.0252-7.5045-.0584-11.2567-.0641-2.0202-.003-4.0404.0396-6.0606.0671-.8048.0109-1.0579.1957-1.1198 1.0031-.053.6911.0345 1.392.0348 2.0887.0046 8.2691.0054 16.5382.0025 24.8074-.0001.4452-.0157.8937-.0691 1.3351-.111.9178.1667 1.2567 1.0868 1.2571 2.9829.0017 5.9659.0006 8.9488.0011 2.9833.0005 5.9662.0001 8.9491.0007zm-62.49258-.3001c.27858-.4154.54953-.8362.81598-1.2597.80859-1.2854 1.6121-2.574 2.41999-3.8599.28609-.4553.58973-.8996.86715-1.3601.65556-1.0884 1.28501-2.1931 1.95327-3.2735.75879-1.2267 1.55009-2.433 2.32359-3.6505.3197-.5033.6212-1.0184.9459-1.5183.6819-1.05 1.3897-2.083 2.0566-3.1426.6557-1.0417 1.2102-2.1538 1.9256-3.1501.7743-1.0782 1.1567-2.1707 1.0603-3.5375-.1239-1.7574-.0231-3.5311-.0201-5.2977.0018-1.0217.3597-1.3823 1.3971-1.3889 1.0392-.0065 2.0787-.0203 3.1176-.0008.6272.0118 1.1077-.3002 1.4133-.7639.9313-1.4129 1.8002-2.8679 2.6876-4.3102.3323-.5402.6312-1.1018.9757-1.6336.679-1.0481 1.3964-2.0712 2.0658-3.1253.6493-1.0225 1.2451-2.0795 1.8886-3.1059.9505-1.5163 1.9195-3.0208 2.8869-4.5263.2919-.4542.6235-.8834.9033-1.3446.6578-1.0841 1.2736-2.1944 1.9472-3.2683.6435-1.0259 1.3432-2.0158 2.0087-3.0279.3164-.4813.6123-.9764.9152-1.4666.4443-.71898.8896-1.43729 1.3287-2.15956.5105-.83982 1.0247-1.65412.988-2.72506-.0592-1.72587-.0284-3.45513-.0236-5.182871.001-.351116-.0865-.534829-.4838-.5323826-2.2132.0137464-4.4267.0024464-6.6398.0216681-.1742.0015144-.4365.1254655-.5063.2679385-.5839 1.193027-1.136 2.402017-1.6901 3.609717-.3773.82223-.7361 1.65296-1.115 2.47436-.2742.59425-.5639 1.18127-.8538 1.76793-.4349.87989-.8849 1.75244-1.3121 2.63606-.3941.8151-.7595 1.6442-1.1508 2.4607-.4.8344-.8172 1.6603-1.2247 2.4912-.2709.5525-.5517 1.1007-.8031 1.6622-.3619.8082-.6893 1.6321-1.0536 2.4391-.2915.6458-.6137 1.2776-.9266 1.9135-.4313.8767-.8779 1.746-1.2969 2.6285-.3871.8154-.7258 1.6545-1.1231 2.4645-.6518 1.3287-1.3619 2.6289-1.9958 3.9662-.6933 1.4625-1.3226 2.9557-1.9907 4.4305-.27.5961-.5658 1.1805-.8545 1.7678-.4481.9116-.9064 1.8182-1.3488 2.7327-.3938.814-.77 1.6368-1.1576 2.4541-.4285.9033-.8652 1.8026-1.2905 2.7074-.3758.7993-.7276 1.6102-1.1141 2.404-.3958.8126-.8377 1.6024-1.2289 2.4172-.3915.8154-.7373 1.6532-1.11812 2.4741-.29995.6465-.62357 1.282-.93529 1.9231-.41313.8494-.8236 1.7-1.23789 2.5488-.46302.9486-.9354 1.8926-1.39184 2.8445-.36613.7635-.72313 1.5318-1.06835 2.3052-.36011.8066-.67611 1.6339-1.05783 2.4296-.3727.7769-.80801 1.5231-1.20809 2.2868-.31992.6107-.63326 1.2251-.93782 1.8438-.06468.1313-.07808.2882-.14218.5392.5523-.0489 1.05968.2217 1.40963-.3003zm-2.14476-.5169c.03453-.1688.11157-.3292.1737-.4916.38992-1.0208.8057-2.0326 1.16536-3.0642.41879-1.201.78791-2.4196 1.18153-3.6296.0358-.11.09955-.2105.13963-.3194.38044-1.0336.78399-2.0594 1.13059-3.1045.395-1.191.73802-2.3995 1.10565-3.5997.0283-.0923.0738-.179.1081-.2695.42226-1.1173.86773-2.2263 1.25914-3.3545.39061-1.126.70592-2.2786 1.09294-3.4059.40574-1.1818.87466-2.3412 1.28421-3.5218.38549-1.1114.72819-2.2379 1.09329-3.3566.0419-.1284.1131-.2467.1593-.3739.1898-.5226.384-1.0438.5587-1.5715.0849-.2566.1093-.5336.1967-.7888.4865-1.4205.9836-2.837 1.4781-4.2547.0446-.1279.0975-.2528.1453-.3796.4472-1.187.9195-2.3651 1.3336-3.5637.3775-1.0931.6648-2.2179 1.0407-3.3115.5315-1.5463 1.2966-3.0112 1.58-4.6439.013-.0754.0464-.1479.0751-.2198.4065-1.0191.8437-2.027 1.2144-3.0591.5932-1.6513 1.1558-3.3142 1.706-4.9808.3752-1.1368.7038-2.2892 1.0615-3.43186.069-.22029.1841-.42532.265-.64235.3772-1.01281.7755-2.01863 1.1172-3.04355.3906-1.17195.7256-2.36264 1.095-3.54181.051-.16298.1838-.29916.2397-.46144.1837-.53296.3493-1.072102.532-1.640365-.2176-.0384439-.2915-.0627914-.3655-.0629079-3.233-.0027959-6.466-.000233-9.699-.0094361-.3233-.000932-.4416.144687-.48.439653-.0778.595526-.1346 1.197106-.2643 1.781796-.4517 2.03738-.9394 4.06661-1.3939 6.1033-.1221.54729-.1441 1.11742-.2653 1.66507-.3799 1.7147-.8148 3.4174-1.1732 5.1365-.4191 2.0104-.7791 4.0331-1.16712 6.0501-.03292.1712-.08709.338-.12589.5082-.41209 1.8114-.85456 3.6166-1.22565 5.4365-.40227 1.9733-.73675 3.9606-1.10437 5.9412-.03176.171-.0976.3352-.13583.5054-.39915 1.7747-.81413 3.5461-1.18834 5.3262-.39453 1.8767-.73305 3.7655-1.12609 5.6424-.42364 2.0231-.89879 4.0352-1.32058 6.0586-.39095 1.8755-.72127 3.7638-1.11488 5.6386-.43335 2.0644-.91566 4.1185-1.36043 6.1805-.11423.5296-.14391 1.0775-.25329 1.6085-.329739 1.6019-.679692 3.2001-1.02133 4.7978 1.00955.2401 1.06291.2038 1.25256-.722z" fill="#636265"/></svg>