<svg fill="none" height="68" viewBox="0 0 174 68" width="174" xmlns="http://www.w3.org/2000/svg"><path d="m67.9725 34.0113c-.0272 18.5633-14.6368 33.8391-34.0073 33.9876-9.2911.0714-17.412-3.4488-24.02278-10.0707-6.67661-6.688-10.1912-14.994-9.9289846-24.2542.5419106-19.1208 14.9273646-33.6447164 34.1251646-33.67395862 19.3626-.02946888 33.9061 15.68605862 33.8339 34.01125862zm35.5175 24.6226c7.162-.4148 11.819-7.1306 9.692-13.9764-1.499-4.8227-5.756-7.6434-11.25-7.4962-3.3219.0888-6.2796 1.0706-8.429 3.6911-2.9264 3.568-3.442 7.6038-1.5381 11.7676 1.976 4.3217 5.6901 6.0107 10.2791 6.0835.416-.0229.831-.0456 1.246-.0696zm-1.26-4.9655c-3.1567-.005-5.3705-2.3961-5.3512-5.7795.0191-3.3266 2.2113-5.6678 5.3212-5.6826 3.25-.0154 5.489 2.344 5.473 5.7653-.017 3.3565-2.258 5.7018-5.443 5.6968zm13.738 3.7212c-.006.6182.113.8886.791.8812 2.799-.0311 5.602.0745 8.395-.0483 3.351-.1474 6.256-1.4472 8.208-4.2392 4.632-6.6274.533-15.461-7.472-16.285-3.058-.3149-6.122-.0544-9.18-.1777-.744-.03-.739.4035-.736.9514.017 3.1341.008 6.2682.009 9.4024 0 3.1715.017 6.3437-.015 9.5152zm5.802-14.2042c.001-.3724-.054-.7463.445-.9108 2.302-.7606 5.644.9112 6.515 3.2771 1.25 3.3919-.231 6.9259-3.285 7.7857-.911.2566-1.859.2832-2.806.311-.72.0211-.897-.2983-.882-.9606.037-1.583.012-3.1673.012-4.7509.001-1.5841 0-3.1679.001-4.7515zm-47.5774-23.1977c0 2.3024-.1156 4.6123.0288 6.9057.1875 2.9809 1.7161 5.0893 4.61 6.0978 2.384.8306 4.8207.8267 7.273.415 1.1222-.1883 2.1963-.541 3.1643-1.1626 2.4235-1.5567 3.1625-3.9593 3.2011-6.6319.059-4.0764-.0032-8.1547.0388-12.2316.0068-.6656-.1621-.8666-.8037-.8521-1.3985.0315-2.7992.0437-4.1966-.003-.6874-.0229-.914.1571-.889.8841.0618 1.8101.0436 3.624.0195 5.4356-.0313 2.3381.1578 4.684-.1716 7.0125-.2527 1.7858-1.282 2.6994-3.0272 2.7574-1.8144.0603-2.954-.8068-3.3148-2.5754-.1044-.5125-.1278-1.0486-.1289-1.5743-.0084-3.6621-.0259-7.3246.0215-10.9862.0098-.7617-.1888-.9856-.9426-.9546-1.359.056-2.7234.0531-4.0826-.0023-.7149-.029-.889.1916-.872.897.0527 2.1884.0193 4.3791.0193 6.5689zm45.0304-7.4645c-.701-.0612-.991.2181-1.224.8523-2.342 6.3667-4.702 12.727-7.098 19.0732-.286.7567-.058.8324.594.812 1.02-.0319 2.042-.0109 3.063-.0111 2.018-.0002 2.06.0116 2.608-1.9801.224-.8136.617-1.0915 1.435-1.0638 1.511.0512 3.025.019 4.538.0161 2.248-.0045 2.271-.0143 2.983 2.1492.226.6877.568.9348 1.305.8995 1.396-.0669 2.799-.0556 4.197-.0066.748.0261.904-.0644.604-.8555-2.126-5.605-4.193-11.2327-6.277-16.8535-1.117-3.0115-1.115-3.0122-4.346-3.0158-.794 0-1.593.053-2.382-.0159zm3.303 8.5331c.457 1.237.81 2.5123 1.249 3.7566.212.6014.065.8548-.576.8482-1.134-.0115-2.269-.0086-3.404-.0052-.545.0018-.772-.1988-.58-.7675.804-2.3829 1.661-4.7502 2.274-7.2612.508 1.121.625 2.3156 1.037 3.4291zm20.617 16.4785c-.823-.0983-1.126.3015-1.378.9827-2.329 6.2896-4.67 12.5746-7.037 18.8497-.296.783-.039.9144.673.8927 1.133-.0347 2.273-.0692 3.402.014 1.085.0798 1.648-.1512 1.846-1.3898.243-1.5122.55-1.6017 2.166-1.5994 1.551.0022 3.102-.0003 4.652-.0012 1.863-.0009 1.87-.0029 2.342 1.8801.186.7395.51 1.1668 1.396 1.111 1.281-.0807 2.573-.0664 3.855-.0034.966.0476 1.251-.1145.856-1.1549-2.119-5.5706-4.169-11.1669-6.237-16.7565-1.037-2.8016-1.031-2.8039-4.27-2.8048-.755-.0013-1.52.0689-2.266-.0202zm3.417 9.1807c.376 1.0233.643 2.0864 1.013 3.112.203.5635.168.8688-.517.8636-1.169-.0086-2.338-.0136-3.507.0016-.497.0066-.732-.172-.562-.6726.81-2.3831 1.626-4.7637 2.147-7.2325.009-.0424.122-.0631.35-.1712.297 1.4064.592 2.7803 1.076 4.0991zm-44.103-34.591c-2.5732.1076-4.8885.8634-6.3537 3.1049-2.2337 3.417-.8159 7.3153 3.1591 8.9159 1.2566.506 2.5576.9002 3.8196 1.3923.888.3461 1.456 1.011 1.329 2.003-.126.9951-.869 1.4693-1.794 1.6108-2.033.311-3.6983-.4974-5.1218-1.8498-.432-.4105-.6141-.3957-.934.0751-.6143.9042-1.2477 1.8005-1.9404 2.6454-.4497.5483-.3734.865.171 1.2796 2.787 2.1218 5.9702 2.6926 9.3292 2.2183 3.562-.5025 5.703-2.7585 6.043-6.0533.33-3.1856-1.013-5.1813-4.485-6.5897-1.217-.494-2.488-.8594-3.691-1.3828-.62-.2693-1.222-.7646-1.086-1.5596.135-.788.737-1.1656 1.521-1.3027 1.603-.2805 3.022.1829 4.219 1.1841.635.5309.828.312 1.162-.2373.489-.8047 1.005-1.6031 1.597-2.3332.515-.635.412-.9925-.247-1.4225-1.905-1.2436-4.01-1.692-6.243-1.6994-.151.0002-.303-.0055-.454.0009zm70.71 25.4083c-1.436.0054-2.875.056-4.308-.0199-.778-.0413-1.178.2729-1.49.911-1.206 2.4681-2.853 4.7175-3.668 7.3797-.059.1952-.153.3613-.371.3566-.224-.0048-.287-.1914-.345-.3813-.824-2.696-2.495-4.9741-3.708-7.4788-.273-.5644-.667-.8151-1.344-.7888-1.509.0589-3.023.0163-4.535.0222-.253.0009-.559-.1467-.742.1167-.238.343.125.5391.264.7787 2.285 3.95 4.573 7.8979 6.867 11.8426.292.5017.43 1.012.419 1.6061-.036 1.8486.013 3.6993-.033 5.5474-.016.6451.16.8646.816.8474 1.511-.0395 3.025-.0445 4.535.0027.653.0204.849-.1619.827-.8243-.052-1.5457.015-3.0951-.028-4.6413-.037-1.296.216-2.3933.95-3.5662 2.357-3.7655 4.502-7.6626 6.727-11.5054-.232-.2885-.538-.2062-.833-.2051zm-98.0225.0041c-.7349-.0118-1.0182.1786-.964.9595.0704 1.0142.0464 2.0395-.0072 3.0562-.0325.615.2032.8093.778.7963 1.0586-.0235 2.1216.0406 3.1759-.0317.9687-.0664 1.3072.2142 1.2933 1.2536-.061 4.6062-.0102 9.2135-.0486 13.8202-.0061.7315.2318.9031.9032.8838 1.3603-.0389 2.7236-.0362 4.0839.003.6977.0202.8673-.2099.8607-.9158-.0429-4.6819-.0118-9.3648-.0443-14.0469-.0052-.7422.2196-1.0247.9662-.9956 1.0952.0423 2.1951-.0229 3.2894.0306.6779.0331.9613-.151.9256-.8707-.0504-1.0172-.0506-2.0404.0007-3.0573.0361-.7129-.2284-.8972-.9172-.8859-2.3822.0392-4.7653.0152-7.1481.0152-2.3822-.0005-4.7655.0233-7.1475-.0145z" fill="#636265"/></svg>