<svg fill="none" height="32" viewBox="0 0 32 32" width="32" xmlns="http://www.w3.org/2000/svg"><g fill="#fff"><path d="m16.6478 14.8241c.6403.3696.8597 1.1883.49 1.8286s-1.1884.8597-1.8287.49c-.6402-.3696-.8596-1.1883-.49-1.8286.3697-.6403 1.1884-.8597 1.8287-.49z"/><g clip-rule="evenodd" fill-rule="evenodd"><path d="m10.5001 13 11.9098-8.08728-1.4098 14.58728-11.36942 7.4904zm1.9353 1.1034 7.574-5.14311-.908 9.39561-7.2261 4.7607z"/><path d="m0 16c0-8.83698 7.16376-16 16-16 8.8362 0 16 7.16302 16 16 0 8.837-7.1638 16-16 16-8.83695 0-16-7.163-16-16zm16-14c-7.73173 0-14 6.26765-14 14 0 7.7324 6.26762 14 14 14 7.7317 0 14-6.2676 14-14 0-7.73235-6.2683-14-14-14z"/></g></g></svg>