<svg fill="none" height="40" viewBox="0 0 32 40" width="32" xmlns="http://www.w3.org/2000/svg"><g fill="#8d44ff"><path d="m8.26904 13.6823 1.46211-1.3647 6.26895 6.7168 6.2689-6.7168 1.4622 1.3647-6.7312 7.2119v6.1058h-2v-6.106z"/><path clip-rule="evenodd" d="m0 16c0-8.83698 7.16376-16 16-16 8.8362 0 16 7.16302 16 16 0 8.837-7.1638 16-16 16-8.83695 0-16-7.163-16-16zm16-14c-7.73173 0-14 6.26765-14 14 0 7.7324 6.26762 14 14 14 7.7317 0 14-6.2676 14-14 0-7.73235-6.2683-14-14-14z" fill-rule="evenodd"/><path d="m11 34v2h10v-2z"/><path d="m11 40v-2h10v2z"/></g></svg>