<svg fill="none" height="136" viewBox="0 0 108 136" width="108" xmlns="http://www.w3.org/2000/svg"><path clip-rule="evenodd" d="m0 53.9805c0-29.8141 24.1689-53.9805 53.9805-53.9805 29.8115 0 53.9805 24.1664 53.9805 53.9805 0 29.814-24.169 53.9805-53.9805 53.9805-29.814 0-53.9805-24.1666-53.9805-53.9805zm53.9805-48.57552c-26.8266 0-48.57552 21.74672-48.57552 48.57552s21.74662 48.5755 48.57552 48.5755c26.8266 0 48.5755-21.7468 48.5755-48.5755 0-26.8288-21.7489-48.57552-48.5755-48.57552zm-26.2433 39.96342 3.9804-3.6565 21.7316 23.6572 21.7316-23.6572 3.9805 3.6565-23.0096 25.0484v25.6717h-5.405v-25.6718zm9.1968 76.8446h34.2315v-5.405h-34.2315zm34.2315 12.911h-34.2315v-5.405h34.2315z" fill="#8d44ff" fill-rule="evenodd"/></svg>