<svg xmlns="http://www.w3.org/2000/svg" width="104" height="61.535" viewBox="0 0 104 61.535">
  <g id="Group_65" data-name="Group 65" transform="translate(-10514 -5473.465)">
    <text id="Lime_Brands" data-name="Lime Brands" transform="translate(10514 5530)" fill="#fff" font-size="18" font-family="SegoeUI-Bold, Segoe UI" font-weight="700"><tspan x="0" y="0">Lime Brands</tspan></text>
    <g id="Group_64" data-name="Group 64" transform="translate(4.665)">
      <path id="Path_99" data-name="Path 99" d="M64.431,137H29.5a.815.815,0,0,0-.8.82A18.24,18.24,0,0,0,46.911,156.1h.056a18.3,18.3,0,0,0,18.268-18.284A.813.813,0,0,0,64.431,137Zm-26.409,9.371a12.075,12.075,0,0,1-3.392-7.764H45.183Zm8.141-6.429v10.287A12.265,12.265,0,0,1,39.2,147.5Zm1.607,0,6.976,7.563a12.258,12.258,0,0,1-6.976,2.724Zm8.157,6.445-7.177-7.78h10.56A12.178,12.178,0,0,1,55.928,146.387Zm-8.961,8.093a16.651,16.651,0,0,1-16.644-15.873h2.692a13.971,13.971,0,0,0,27.9,0h2.692A16.68,16.68,0,0,1,46.967,154.48Z" transform="translate(10684.431 5444.765) rotate(90)" fill="#fff"/>
      <path id="Path_100" data-name="Path 100" d="M2041.754,2369.8h7.42v27.686h20.21l-3.654,5.482h-23.7Z" transform="translate(8509.385 3105.346)" fill="#fff"/>
      <path id="Subtraction_6" data-name="Subtraction 6" d="M21.589,33.168H9.745l3.544-5.592h4.374a3.47,3.47,0,0,0,.528-.156,4.643,4.643,0,0,0,1.161-.633,4.382,4.382,0,0,0,1.689-3.7,4.382,4.382,0,0,0-1.689-3.7,4.642,4.642,0,0,0-1.161-.633,3.5,3.5,0,0,0-.528-.156H6.811v7.7H0V0H17.22s.482.071,1.208.26a16.435,16.435,0,0,1,2.765.986A11.094,11.094,0,0,1,24.228,3.27a7.74,7.74,0,0,1,1.216,1.5,6.865,6.865,0,0,1,.8,1.875,7.207,7.207,0,0,1,.24,1.954,6.473,6.473,0,0,1-.264,1.706,7.437,7.437,0,0,1-1.457,2.653,9.569,9.569,0,0,1-.9.939,10.3,10.3,0,0,1-.825.675,7.826,7.826,0,0,1-.834.545h0a8.539,8.539,0,0,1,1.013.44,11.265,11.265,0,0,1,1.032.59,10.641,10.641,0,0,1,1.172.873,8.591,8.591,0,0,1,2.131,2.7A7.767,7.767,0,0,1,28.2,21.6a8.738,8.738,0,0,1,.153,2.268,10.038,10.038,0,0,1-.4,2.292A9.925,9.925,0,0,1,27.13,28.1a11.4,11.4,0,0,1-2.306,2.889,13.469,13.469,0,0,1-1.2.974c-.336.243-.685.472-1.035.679a9.67,9.67,0,0,1-1,.527h0ZM6.721,5.413l.164,7.732,9.862-.164a3.659,3.659,0,0,0,.532-.132,4.409,4.409,0,0,0,1.143-.552,3.342,3.342,0,0,0,1.4-3.313,3.777,3.777,0,0,0-1.806-3.1,3.726,3.726,0,0,0-1.064-.406,2.819,2.819,0,0,0-.472-.065Z" transform="translate(10566.919 5475.148)" fill="#fff"/>
    </g>
  </g>
</svg>
