<svg xmlns="http://www.w3.org/2000/svg" width="188.315" height="38" viewBox="0 0 188.315 38">
  <g id="Group_63" data-name="Group 63" transform="translate(-10467.685 -5417)">
    <path id="Path_99" data-name="Path 99" d="M56.843,137H29.333a.642.642,0,0,0-.633.646A14.366,14.366,0,0,0,43.043,152.04h.044a14.414,14.414,0,0,0,14.388-14.4A.64.64,0,0,0,56.843,137Zm-20.8,7.381a9.51,9.51,0,0,1-2.671-6.115h8.311Zm6.412-5.064v8.1a9.66,9.66,0,0,1-5.488-2.152Zm1.266,0,5.494,5.956a9.654,9.654,0,0,1-5.494,2.146Zm6.425,5.077-5.653-6.127H52.81A9.592,9.592,0,0,1,50.146,144.393Zm-7.058,6.374a13.115,13.115,0,0,1-13.109-12.5H32.1a11,11,0,0,0,21.978,0H56.2A13.138,13.138,0,0,1,43.088,150.768Z" transform="translate(10619.725 5393.3) rotate(90)" fill="#fff"/>
    <text id="Lime_Brands" data-name="Lime Brands" transform="translate(10488 5448)" fill="#fff" font-size="29" font-family="SegoeUI-Bold, Segoe UI" font-weight="700"><tspan x="0" y="0">Lime Brands</tspan></text>
  </g>
</svg>
