<svg fill="none" height="136" viewBox="0 0 204 136" width="204" xmlns="http://www.w3.org/2000/svg"><g fill="#8d44ff"><path d="m70.7943 45.3686 3.9804-3.6565 21.7316 23.6572 21.7317-23.6572 3.98 3.6565-23.0092 25.0484v25.6717h-5.405v-25.6717z"/><path clip-rule="evenodd" d="m97.0376.00024414c-29.8115 0-53.9805 24.16645586-53.9805 53.98045586 0 13.9721 5.3076 26.7038 14.0166 36.2891l-8.2134 8.2859-23.8214-24.0337-25.0389 25.257 3.83843 3.805 21.20007-21.3844 23.8216 24.0334 12.0429-12.1486c9.5674 8.6256 22.2375 13.8766 36.1346 13.8766 13.6254 0 26.0714-5.048 35.5704-13.3757l11.545 11.6477 59.069-59.589-3.839-3.8051-55.23 55.7168-7.663-7.7316c9.012-9.6461 14.528-22.6003 14.528-36.8434 0-29.814-24.169-53.98045586-53.9804-53.98045586zm-48.5755 53.98045586c0-26.8288 21.7489-48.57548 48.5755-48.57548 26.8264 0 48.5754 21.74668 48.5754 48.57548s-21.749 48.5753-48.5754 48.5753c-26.8289 0-48.5755-21.7464-48.5755-48.5753z" fill-rule="evenodd"/><path d="m79.9911 122.213h34.2319v-5.405h-34.2319z"/><path d="m114.223 135.125h-34.2319v-5.405h34.2319z"/></g></svg>