<svg fill="none" height="140" viewBox="0 0 189 140" width="189" xmlns="http://www.w3.org/2000/svg"><path clip-rule="evenodd" d="m135.094.748047c-29.771 0-53.9067 24.074553-53.9067 53.775253s24.1337 53.7757 53.9067 53.7757c29.77 0 53.906-24.0749 53.906-53.7757 0-29.7007-24.136-53.775253-53.906-53.775253zm-48.5091 53.775253c0-26.7268 21.7191-48.39082 48.5091-48.39082 26.789 0 48.508 21.66402 48.508 48.39082 0 26.7269-21.719 48.3907-48.508 48.3907-26.792 0-48.5091-21.6638-48.5091-48.3907zm-60.041 46.4557-26.5439 3.718 4.48338 3.878c20.00142 17.296 50.22342 17.686 70.72722-.18 5.0688-4.417 9.113-9.5761 12.1073-15.1754l-4.7623-2.5344c-2.691 5.0322-6.3275 9.6738-10.8958 13.6548-16.8016 14.64-40.8619 15.659-58.6168 3.967l18.4351-2.582 1.721-16.5969 21.7925 3.6233 8.577 9.7956 4.0652-3.5422-8.3679-9.5567 15.3999-35.2762-4.9487-2.1499-14.3797 32.9395-3.8704-4.4203c.0332-.053.0667-.107.1004-.1618.7545-1.2276 1.6796-2.9928 2.2684-5.0601.5891-2.0685.8735-4.5558.1961-7.1342-.6899-2.6261-2.3178-5.1133-5.1533-7.2142-1.9167-1.4201-2.5576-2.7666-2.7325-3.8673-.1879-1.1819.099-2.4895.7508-3.8527.6478-1.3551 1.57-2.5812 2.3693-3.4949.3928-.449.7401-.8046.9838-1.043.1214-.1189.216-.2075.2764-.2631.0301-.0277.0516-.0471.0635-.0578l.0072-.0065c-.0007.0006-.0014.0013-1.7786-2.0248s-1.778-2.0254-1.7788-2.0246l-.002.0017-.0047.0041-.0124.0109-.0366.0326c-.0295.0265-.0692.0624-.1181.1073-.0976.0899-.2322.2164-.3957.3764-.3263.3193-.7718.7762-1.2707 1.3464-.9841 1.1249-2.2406 2.7643-3.1744 4.7173-.9298 1.9447-1.6274 4.3875-1.21 7.0139.4304 2.7076 1.9845 5.2273 4.8452 7.3467 1.9417 1.4387 2.7993 2.9204 3.1504 4.2567.3636 1.3841.2445 2.8526-.167 4.2976-.2625.9217-.631 1.7864-1.0173 2.5422-3.5095-3.3399-6.7849-4.9964-9.9992-5.3737-3.9012-.4579-7.1158 1.0658-9.5289 2.2901-.255.1293-.4983.2541-.7324.3741h-.0001l-.0001.0001c-.9513.4877-1.7498.8971-2.556 1.2188-.9654.3853-1.7093.542-2.357.5143-1.083-.0463-2.8915-.6739-5.5871-4.6977l-4.4877 2.9919c3.0774 4.5936 6.2196 6.9303 9.8436 7.0853 1.7058.073 3.2545-.3604 4.5931-.8946 1.067-.4258 2.1496-.982 3.1162-1.4786.2107-.1082.4159-.2136.6142-.3142 2.3855-1.2102 4.3048-1.9939 6.4515-1.7419 2.0979.2462 5.0178 1.5779 9.017 6.1351l.491.5595 2.8931 3.3041-20.9764-3.4876zm82.3421-55.035 3.975-3.6426 21.702 23.5673 21.702-23.5673 3.975 3.6426-22.978 24.9532v25.5741h-5.398v-25.5742zm43.369 76.552h-34.184v-5.384h34.184zm-80.6564 8.535 22.486-19.593-3.5508-4.056-22.486 19.593zm80.6564 4.328h-34.184v-5.385h34.184zm-73.0237 4.389 22.4857-19.593-3.5504-4.055-22.4861 19.593z" fill="#636265" fill-rule="evenodd"/></svg>