<svg fill="none" height="157" viewBox="0 0 131 157" width="131" xmlns="http://www.w3.org/2000/svg"><g fill="#636265"><path clip-rule="evenodd" d="m50.8392 60.5721h5.8217l-12.2657-31.5086h-6.1772l-12.2657 31.5086h5.644l2.9331-7.9105h13.3322zm-9.6437-25.7313 4.7996 12.8879h-9.5992z" fill-rule="evenodd"/><path clip-rule="evenodd" d="m5.98975 145.868-5.98975 7.273 4.17225 3.436 117.39175-142.5477h.032v-.0385l8.692-10.55482-4.172-3.43598-7.102 8.6243h-113.02425zm5.40495-6.563 103.1683-125.2757h-103.1683z" fill-rule="evenodd"/><path d="m118.894 29.0431v114.7059h-93.3863v5.405h98.7913v-120.1109z"/><path clip-rule="evenodd" d="m77.93 124.831v-31.5084h10.8436c6.044 0 9.5992 3.5553 9.5992 8.4884 0 3.333-1.9554 5.822-4.6663 6.799 3.3331.889 5.644 3.778 5.644 7.511 0 5.066-3.9108 8.71-9.777 8.71zm5.2885-26.9754v8.7994h4.844c3.1109 0 4.9774-1.778 4.9774-4.4 0-2.6662-1.8665-4.3994-5.1107-4.3994zm0 13.2874v9.155h5.4218c3.1997 0 5.2884-1.733 5.2884-4.533 0-2.711-1.822-4.622-5.1107-4.622z" fill-rule="evenodd"/></g></svg>