<svg fill="none" height="32" viewBox="0 0 32 32" width="32" xmlns="http://www.w3.org/2000/svg"><g fill="#fff"><path clip-rule="evenodd" d="m0 16c0-8.83698 7.16376-16 16-16 8.8362 0 16 7.16302 16 16 0 8.837-7.1638 16-16 16-8.83695 0-16-7.163-16-16zm16-14c-7.73173 0-14 6.26765-14 14 0 7.7324 6.26762 14 14 14 7.7317 0 14-6.2676 14-14 0-7.73235-6.2683-14-14-14z" fill-rule="evenodd"/><path d="m15.3919 8.80488c-.5045 0-.982.07317-1.4324.21951-.4325.14634-.8199.35772-1.1622.63415-.3243.26016-.5856.57726-.7838.95126-.1802.3739-.2703.7886-.2703 1.2439 0 .5365.0901.9837.2703 1.3414.1982.3577.4595.6586.7838.9025.3423.2276.7297.4146 1.1622.5609.4504.1464.9279.2846 1.4324.4147zm1.2703 15.02442c.5585 0 1.081-.0895 1.5675-.2683.5045-.1789.946-.4228 1.3244-.7317.3783-.309.6756-.6748.8918-1.0976.2163-.439.3244-.9187.3244-1.439 0-.6016-.1081-1.0976-.3244-1.4878-.2162-.4065-.5135-.7317-.8918-.9756-.3604-.2602-.7928-.4634-1.2973-.6098-.4865-.1463-1.0181-.2764-1.5946-.3902zm0 3.1707h-1.2433v-1.8537c-1.5315-.0813-2.8018-.4634-3.8108-1.1463-.991-.6829-1.64864-1.7073-1.97296-3.0732-.03604-.2114-.06307-.4146-.08109-.6097-.01801-.1951-.03603-.3903-.05405-.5854h1.7568c0 .5529.0991 1.0732.2973 1.561.1982.4715.4774.8943.8378 1.2683.3784.3577.8198.6504 1.3243.878.5045.2277 1.0631.3577 1.6757.3903v-7.2439c-.7387-.1626-1.4414-.3496-2.1081-.561-.6487-.2277-1.2162-.5122-1.7027-.8537-.4865-.3577-.8739-.7967-1.1622-1.317-.2703-.5204-.4054-1.1626-.4054-1.9269 0-.6829.1442-1.3008.4324-1.8536.2883-.55287.6757-1.02442 1.1622-1.41466.5045-.39025 1.0811-.68293 1.7297-.87805.6487-.21138 1.3424-.30895 2.0811-.29269v-1.4878h1.2433v1.4878c.7387 0 1.4234.09757 2.054.29269.6306.17886 1.1802.45528 1.6487.82927.4684.35772.8378.80487 1.1081 1.34146.2702.53658.4234 1.14638.4594 1.82928h-1.7567c0-.439-.0991-.8374-.2973-1.1951-.1802-.374-.4325-.69109-.7568-.95125-.3063-.26017-.6757-.46342-1.1081-.60976-.4144-.14634-.8649-.21951-1.3513-.21951v6.48782c.8828.1951 1.6846.4065 2.4054.6341.7207.2277 1.3333.5285 1.8378.9025s.8919.8618 1.1622 1.4634c.2883.5853.4324 1.3414.4324 2.2683 0 .7154-.1712 1.3577-.5135 1.9268-.3424.5528-.7928 1.0244-1.3514 1.4146-.5405.3903-1.1621.6911-1.8648.9025s-1.4054.3252-2.1081.3414z"/></g></svg>