<svg fill="none" height="32" viewBox="0 0 32 32" width="32" xmlns="http://www.w3.org/2000/svg"><path d="m13.419 12.614 6.18 3.224-6.179 3.202zm18.581-12.614v32h-32v-32zm-6.685 15.29c0-1.508-.186-3.015-.186-3.015s-.182-1.284-.741-1.849c-.708-.742-1.503-.746-1.867-.789-2.607-.188-6.518-.188-6.518-.188h-.008s-3.911 0-6.518.188c-.363.043-1.157.047-1.866.789-.559.565-.74 1.849-.74 1.849s-.186 1.508-.186 3.015v1.413c0 1.508.186 3.015.186 3.015s.182 1.284.74 1.849c.709.742 1.64.719 2.054.796 1.491.145 6.335.189 6.335.189s3.915-.006 6.522-.194c.364-.043 1.158-.047 1.867-.789.559-.565.741-1.849.741-1.849s.186-1.508.186-3.015z" fill="#fff"/></svg>